<?xml version="1.0" standalone="no"?>
<!DOCTYPE svg PUBLIC "-//W3C//DTD SVG 20010904//EN"
 "http://www.w3.org/TR/2001/REC-SVG-20010904/DTD/svg10.dtd">
<svg version="1.0" xmlns="http://www.w3.org/2000/svg"
 width="500.000000pt" height="500.000000pt" viewBox="0 0 500.000000 500.000000"
 preserveAspectRatio="xMidYMid meet">

<g transform="translate(0.000000,500.000000) scale(0.100000,-0.100000)"
fill="#000000" stroke="none">
<path d="M0 2500 l0 -2500 2500 0 2500 0 0 2500 0 2500 -2500 0 -2500 0 0
-2500z m2050 1013 c0 -5 7 -51 15 -103 18 -116 18 -110 1 -110 -7 0 -16 9 -19
20 -3 11 -12 20 -21 20 -9 0 -16 -8 -16 -20 0 -11 -7 -20 -15 -20 -18 0 -19
20 -4 109 17 108 18 111 39 111 11 0 20 -3 20 -7z m128 -5 c17 -17 15 -48 -3
-48 -8 0 -15 7 -15 15 0 8 -4 15 -10 15 -17 0 -11 -29 16 -71 18 -29 24 -51
22 -77 -3 -33 -6 -37 -33 -40 -19 -3 -33 2 -42 14 -19 26 -16 44 7 44 11 0 20
-7 20 -15 0 -8 5 -15 10 -15 17 0 10 33 -15 75 -37 60 -30 115 15 115 9 0 21
-5 28 -12z m82 -98 c0 -103 -1 -110 -20 -110 -19 0 -20 7 -20 110 0 103 1 110
20 110 19 0 20 -7 20 -110z m110 91 c21 -40 0 -58 -26 -23 -26 34 -16 -26 11
-66 39 -58 30 -112 -20 -112 -12 0 -26 5 -33 12 -17 17 -15 48 3 48 8 0 15 -7
15 -15 0 -8 4 -15 9 -15 23 0 20 24 -11 79 -28 52 -31 62 -20 85 14 32 56 36
72 7z m120 4 c0 -8 -7 -15 -15 -15 -12 0 -15 -17 -15 -95 0 -78 -3 -95 -15
-95 -12 0 -15 17 -15 90 0 71 -3 92 -15 96 -8 4 -15 12 -15 20 0 10 13 14 45
14 33 0 45 -4 45 -15z m78 -37 l9 -53 7 40 c11 61 14 65 36 65 19 0 20 -6 20
-110 0 -90 -3 -110 -15 -110 -10 0 -15 16 -17 63 l-3 62 -9 -62 c-10 -71 -22
-81 -31 -25 -11 66 -13 68 -14 15 -1 -40 -5 -53 -16 -53 -12 0 -15 19 -15 110
0 102 1 110 19 110 16 0 21 -11 29 -52z m182 37 c0 -8 -9 -15 -20 -15 -16 0
-20 -7 -20 -30 0 -20 5 -30 15 -30 8 0 15 -7 15 -15 0 -9 -7 -18 -15 -21 -9
-4 -15 -19 -15 -35 0 -22 5 -29 20 -29 11 0 20 -7 20 -15 0 -11 -11 -15 -40
-15 l-40 0 0 110 0 110 40 0 c29 0 40 -4 40 -15z m-1272 -228 c6 -7 111 -269
233 -583 121 -313 231 -594 242 -624 l22 -55 5 635 5 635 187 3 c141 2 190 -1
198 -10 6 -7 180 -357 385 -777 l374 -764 29 64 c105 229 676 1448 688 1467
14 21 19 22 199 22 172 0 185 -1 195 -19 7 -13 10 -280 10 -795 l0 -776 -200
0 -200 0 -2 328 -3 327 -270 -535 -270 -535 -178 0 -179 0 -284 550 -284 550
0 -587 c0 -570 -1 -588 -19 -598 -12 -6 -109 -10 -245 -10 -223 0 -226 0 -239
23 -8 12 -103 275 -212 585 -109 309 -201 562 -205 562 -3 0 -96 -257 -205
-572 -110 -314 -206 -577 -213 -585 -10 -10 -56 -13 -185 -13 -172 0 -217 5
-217 21 0 15 791 2053 802 2067 13 15 23 15 36 -1z"/>
<path d="M2020 3408 c0 -16 5 -28 10 -28 13 0 13 20 0 40 -8 12 -10 9 -10 -12z"/>
</g>
</svg>
