<?xml version="1.0" standalone="no"?>
<!DOCTYPE svg PUBLIC "-//W3C//DTD SVG 20010904//EN"
 "http://www.w3.org/TR/2001/REC-SVG-20010904/DTD/svg10.dtd">
<svg version="1.0" xmlns="http://www.w3.org/2000/svg"
 width="500.000000pt" height="500.000000pt" viewBox="0 0 500.000000 500.000000"
 preserveAspectRatio="xMidYMid meet">

<g transform="translate(0.000000,500.000000) scale(0.100000,-0.100000)"
fill="#000000" stroke="none">
<path d="M1442 3278 c-11 -14 -802 -2052 -802 -2067 0 -16 45 -21 217 -21 129
0 175 3 185 13 7 8 103 271 213 585 109 315 202 572 205 572 4 0 96 -253 205
-562 109 -310 204 -573 212 -585 13 -23 16 -23 239 -23 136 0 233 4 245 10 18
10 19 28 19 598 l0 587 284 -550 284 -550 179 0 178 0 270 535 270 535 3 -327
2 -328 200 0 200 0 0 776 c0 515 -3 782 -10 795 -10 18 -23 19 -195 19 -180 0
-185 -1 -199 -22 -12 -19 -583 -1238 -688 -1467 l-29 -64 -374 764 c-205 420
-379 770 -385 777 -8 9 -57 12 -198 10 l-187 -3 -5 -635 -5 -635 -22 55 c-11
30 -121 311 -242 624 -122 314 -227 576 -233 583 -13 16 -23 16 -36 1z"/>
</g>
</svg>
